<svg role="img" viewBox="0 0 24 24" xmlns="http://www.w3.org/2000/svg"><title>Artificial Intelligence</title><path d="M12 2c-.55 0-1 .45-1 1s.45 1 1 1 1-.45 1-1-.45-1-1-1zM4 12c0-.55-.45-1-1-1s-1 .45-1 1 .45 1 1 1 1-.45 1-1zM12 20c-.55 0-1 .45-1 1s.45 1 1 1 1-.45 1-1-.45-1-1-1zM20 12c0-.55-.45-1-1-1s-1 .45-1 1 .45 1 1 1 1-.45 1-1zM7.05 7.05c-.39 0-.71.32-.71.71s.32.71.71.71 1.05-.32 1.05-.71-.32-.71-1.05-.71zM16.95 7.05c-.39 0-.71.32-.71.71s.32.71.71.71.71-.32.71-.71-.32-.71-.71-.71zM16.95 16.95c-.39 0-.71.32-.71.71s.32.71.71.71.71-.32.71-.71-.32-.71-.71-.71zM7.05 16.95c-.39 0-.71.32-.71.71s.32.71.71.71.71-.32.71-.71-.32-.71-.71-.71zM12 7c-2.76 0-5 2.24-5 5s2.24 5 5 5 5-2.24 5-5-2.24-5-5-5zm0 8c-1.66 0-3-1.34-3-3s1.34-3 3-3 3 1.34 3 3-1.34 3-3 3z"/></svg>
