<svg role="img" viewBox="0 0 24 24" xmlns="http://www.w3.org/2000/svg"><title>CI/CD</title><path d="M18.5,7C17.03,7 15.66,7.59 14.64,8.56L12,11.08L9.36,8.56C8.34,7.59 6.97,7 5.5,7C2.46,7 0,9.46 0,12.5C0,15.54 2.46,18 5.5,18C6.97,18 8.34,17.41 9.36,16.44L12,13.92L14.64,16.44C15.66,17.41 17.03,18 18.5,18C21.54,18 24,15.54 24,12.5C24,9.46 21.54,7 18.5,7M5.5,16A3.5,3.5 0 0,1 2,12.5A3.5,3.5 0 0,1 5.5,9C6.44,9 7.27,9.37 7.89,9.97L10.5,12.5L7.89,15.03C7.27,15.63 6.44,16 5.5,16M18.5,16C17.56,16 16.73,15.63 16.11,15.03L13.5,12.5L16.11,9.97C16.73,9.37 17.56,9 18.5,9A3.5,3.5 0 0,1 22,12.5A3.5,3.5 0 0,1 18.5,16Z" /></svg>
