<svg role="img" viewBox="0 0 24 24" xmlns="http://www.w3.org/2000/svg"><title>Dialogflow</title><path d="M18.814 11.583V8.402a.453.453 0 00-.737-.354l-2.071 1.63a.454.454 0 00-.038.67l1.045 1.045c.241.24.646.2.829-.082.028-.043.042-.093.042-.143l-.001-.018c.002-.19-.105-.363-.277-.446a.45.45 0 01-.22-.394v-1.145c0-.131.106-.237.237-.237s.237.106.237.237v3.181a.453.453 0 00.755.337l2.122-1.838a.453.453 0 000-.694l-2.122-1.838a.453.453 0 00-.755.337v1.145c0 .167-.091.319-.241.396-.151.077-.333.064-.471-.035l-1.045-1.045a.454.454 0 00-.67.038l-1.63 2.071a.453.453 0 00.354.737h3.181v.831h-4.32a.453.453 0 00-.453.453v1.898c0 .25.204.453.453.453v1.898c.25 0 .453-.203.453-.453v-.831h.831v1.161c0 .25.203.453.453.453h1.898c.25 0 .453-.203.453-.453V15.02h-.831V11.583h.831zM5.186 11.583V15.021h.831v3.181c0 .25.203.453.453.453h1.898c.25 0 .453-.203.453-.453v-1.161h.831v.831c0 .25.203.453.453.453h1.898c.25 0 .453-.203.453-.453v-1.898a.453.453 0 00-.453-.453H8.324v-.831h3.181a.453.453 0 00.354-.737l-1.63-2.071a.454.454 0 00-.67-.038l-1.045 1.045c-.138.099-.32.112-.471.035-.15-.077-.241-.229-.241-.396v-1.145a.453.453 0 00-.755-.337L5.565 10.32a.453.453 0 000 .694l2.122 1.838a.453.453 0 00.755-.337v-3.181c0-.131.106-.237.237-.237s.237.106.237.237v1.145a.45.45 0 01-.22.394c-.172.083-.279.256-.277.446l-.001.018c0 .05.014.1.042.143.183.282.588.322.829.082l1.045-1.045a.454.454 0 00-.038-.67l-2.071-1.63a.453.453 0 00-.737.354v3.181h-.831z"/></svg>
