<svg role="img" viewBox="0 0 24 24" xmlns="http://www.w3.org/2000/svg"><title>Pandas</title><path d="M11.83.02a.458.458 0 00-.4.241l-1.127 2.064-.002.003L7.766 6.862l-.004.008-1.579 3.031-.194.382h.426.657 2.212l1.393-2.618 1.368-2.642 1.134-2.193a.457.457 0 00-.411-.671h-1.025v-.002zm-1.84 5.385l-1.385 2.593-.418.784L.278 23.361a.458.458 0 00.413.639h2.365a.465.465 0 00.41-.264l6.096-11.45 1.383-2.597 1.387-2.61.168-.316h-.88zm4.041.023l-.15.289-1.383 2.597-1.387 2.61-.15.282h.864l1.385-2.593.414-.775 7.915-14.503a.458.458 0 00-.41-.678H18.9a.465.465 0 00-.406.257L14.031 5.408zm5.666 12.158l-2.074 3.844-2.41 4.544a.458.458 0 00.41.644h2.361a.465.465 0 00.41-.264l2.407-4.542.47-.887.618-1.16a.457.457 0 00-.411-.674h-2.31a.465.465 0 00-.4-.25l.529-.259z"/></svg>
