<svg role="img" viewBox="0 0 24 24" xmlns="http://www.w3.org/2000/svg"><title>PyTorch</title><path d="M12 0c-1.397 0-2.54 1.144-2.54 2.543 0 1.398 1.143 2.544 2.54 2.544 1.397 0 2.54-1.146 2.54-2.544C14.54 1.144 13.397 0 12 0zm0 18.913c-4.475 0-8.113-3.056-8.113-6.814 0-.464.056-.913.16-1.344.07-.282.413-.393.634-.183l8.9 8.354c.219.168.102.51-.183.58a8.216 8.216 0 0 1-1.398.207zm1.343-12.285l-7.234 6.78c-.22.174-.567.042-.6-.245a6.45 6.45 0 0 1-.16-1.402c0-3.55 3.033-6.435 6.766-6.435 1.54 0 2.96.49 4.102 1.302.211.149.196.471-.03.593a6.4 6.4 0 0 0-2.844.753v5.303H12v-6.65h1.343z"/></svg>
