<svg role="img" viewBox="0 0 24 24" xmlns="http://www.w3.org/2000/svg"><title>Scikit-learn</title><path d="M12 0L2.1 5.7v12.6L12 24l9.9-5.7V5.7L12 0zm0 1.8l8.4 4.8v10.8L12 22.2l-8.4-4.8V6.6l8.4-4.8zM10.158 5.76C8.75 5.76 7.6 6.91 7.6 8.32s1.15 2.56 2.558 2.56 2.558-1.15 2.558-2.56-1.15-2.56-2.558-2.56zM8.88 15.36c-1.408 0-2.558 1.15-2.558 2.56s1.15 2.56 2.558 2.56 2.558-1.15 2.558-2.56-1.15-2.56-2.558-2.56zm5.12-2.56c-1.408 0-2.558 1.15-2.558 2.56s1.15 2.56 2.558 2.56 2.558-1.15 2.558-2.56-1.141-2.56-2.558-2.56zM15.12 5.76c-1.408 0-2.558 1.15-2.558 2.56s1.15 2.56 2.558 2.56 2.558-1.15 2.558-2.56-1.15-2.56-2.558-2.56z"/></svg>
